<svg id="aca682d4-33a6-4cbd-a7bf-476cc8d9bd0f" data-name="Layer 1" xmlns="http://www.w3.org/2000/svg" width="865.76" height="682.89" viewBox="0 0 865.76 682.89"><path d="M289.67,116.91v26.87a8.64,8.64,0,0,0,9.89,8.55c33.9-4.91,147.54-19.65,222.55-8.4,0,0,10.38,2.48,13.35-10.38V107.32a11.24,11.24,0,0,0-10.4-11.22C490,93.45,373.86,86.69,298.12,106A11.24,11.24,0,0,0,289.67,116.91Z" fill="#ccc"/><path d="M345.51,589.55s-5.18,4.12-3.26,18.07c0,0,4.73,20.74,11.52,31.62,0,0,4.86,11.77,19.07,9S383.59,635,383.59,635l-3.2-11.26s-7.3-32-11.78-34.2Z" fill="#5a0066"/><path d="M425.06,585.48s-6.91,5.57-1,21.5c0,0,8.18,32.53,32.14,33.76a12.42,12.42,0,0,0,6.63-1.47c3.15-1.74,6.52-5.42,5.11-13.15-.05-.22-.07-.45-.1-.68-.29-1.94-8.74-16.53-11.33-26.14,0,0-6.61-15.9-10.56-16.89Z" fill="#5a0066"/><path d="M346.6,588.68V595a6.13,6.13,0,0,0,3.2,5.39c3.18,1.72,8.67,3.26,16.18.18a5.14,5.14,0,0,0,3.15-4.75v-7.48Z" fill="#f9b499"/><path d="M425.06,585.48l1,8.83s10.56,8.71,22.82-2.07l-1.35-12.14Z" fill="#f9b499"/><path d="M352.49,314.38l-1.92,127.1-9,144.57s7.87,12.68,33.79,1.73c0,0,21.7-145.91,29.76-171.64,0,0,8.45,59.9,8.83,78.33l6.15,89.47s13.82,11.91,33-4.22l3.46-138.62,7.78-139S393.57,344.33,352.49,314.38Z" fill="#5a0066"/><path d="M477.63,314.84c1.93,9.61,6.36,40.43-16.22,39.47L464.33,312l11-4.26.86,2.21A29.48,29.48,0,0,1,477.63,314.84Z" fill="#f9b499"/><path d="M448.25,113.14h-47s-35.71-4.58-66.43,42.65c0,0-14.21,24.19-17.66,41.47l-16.51,49.15s-7.3,11.14,9.21,15.75L354,273.29,347.88,314s39.72,39.72,116.39-11.85q-.56,7.1-1.19,14.63s10.84-.77,15.45-6.24L485.16,156S487.08,115.32,448.25,113.14ZM357,248.43l-27.07-9.22L357,202.35S359,231.73,357,248.43Zm108.28,40c.42-15.72,2.46-42.51,2.56-67.72.05-15.52-.18-30.74-.93-42.93C468.52,197.49,466.74,233.11,465.28,288.44Z" fill="#c743b1"/><path d="M388.1,259.24l-1.73,22-51.31-12.75-27.57-7.12s-13.08-3.46-6.84-15l17.07-51.65s6.08-17.76,9.39-24.34L357,202.35l-27.07,36.86Z" opacity="0.2"/><path d="M388,261.22s.12,1.85,5.08,1.08a13.9,13.9,0,0,0,7.34-3.64c3.31-3.09,10.36-9,16.48-10.08a2,2,0,0,1,2.32,2.22c-.22,1.64-1.14,4.18-4,7.77,0,0-5.12,4.61,4,6.91a67.21,67.21,0,0,0,9.26,1.65l.48,0c1.33,0,9,.39,10.3,5.54a5.85,5.85,0,0,1-.53,4c-1.46,2.87-5.88,8.59-17.93,8.93a29.19,29.19,0,0,1-7.16-.68,56.92,56.92,0,0,1-11.25-3.7s-10.45-4.17-15.7-4.17Z" fill="#f9b499"/><path d="M561.67,199.32s-38.7,26.29-118.75,37.6c-1.62.23-3.24.5-4.86.79-3.71.68-13.69,1.27-12.88-12.32l-.05-36.45s-2.62-13.79,14.29-18.52c0,0,101.48-13.13,129.17-43.3,0,0,5.74-6.18,7.21-1a6,6,0,0,1,.21,1.64v48.35s1.48,13.35-8.41,17.8l-2,21.27Z" fill="#ccc"/><path d="M336.54,319.3l5,18.89L346,315.92l1.92-1.92L354,273.29l-35.47-9s-16.27,10.1-1,26.23a38.82,38.82,0,0,1,1.28,8.41l.26,31.36S327.58,322.88,336.54,319.3Z" fill="#ccc"/><path d="M319.08,330.25v19.46s-1.15,9.6-3.84,5.76l-2.54-4.72A14.1,14.1,0,0,1,311,344l.32-64s1,4.59,6.19,10.5a33.2,33.2,0,0,1,1.28,8.41Z" fill="#ccc"/><path d="M319.08,330.25v19.46s-1.15,9.6-3.84,5.76l-2.54-4.72A14.1,14.1,0,0,1,311,344l.32-64s.82,5,6.19,10.5a33.2,33.2,0,0,1,1.28,8.41Z" opacity="0.2"/><path d="M366.43,347.17v25.39a5.93,5.93,0,0,0,5.76,5.92c27.14.74,142.66,1.88,200.24-30.68a5.9,5.9,0,0,0,3-5.14V317.52a5.92,5.92,0,0,0-8.38-5.39c-19.22,8.71-73.8,27.51-194.76,29.11A5.93,5.93,0,0,0,366.43,347.17Z" fill="#ccc"/><path d="M402.28,103.18a50.46,50.46,0,0,1-4,9s-6.14,6.19,4,17.19c0,0,9.6,11.65,24.9,11.52,0,0,11.19.51,8.5-6.91,0,0-2.94-9.34-3.71-12l-25.42-20.21Z" fill="#f9b499"/><path d="M434.46,130.13,432,122.07s-13.26.26-20.39-8.93C411.58,113.14,417.6,128.56,434.46,130.13Z" fill="#f7a48b"/><path d="M403.36,102.22a38.43,38.43,0,0,0,22.28,19.2s19.2,9.09,26.11-17.34c0,0,7.68-25.86,4.41-43.14l-49,13Z" fill="#f9b499"/><path d="M455.78,104.62,465.87,99a12.79,12.79,0,0,0,3.78-3.2A25.11,25.11,0,0,0,474.88,84s2-7.79-4.69-10.22a15.23,15.23,0,0,0-4.71,1.49L444.08,87.9s-6.38,3.17-9.25,13.31c0,0-1.26,5,.85,9.1a5.05,5.05,0,0,0,7,2.17l.24-.14Z" fill="#3f3d56"/><path d="M407.6,90.16c-1.29-2.8-3.79-9.92,4-10.74a10.13,10.13,0,0,0,5.08-1.94,21.82,21.82,0,0,0,2.37-2A5,5,0,0,1,422.89,74c7.07.47,27.74,1,33-8.54,0,0,7.55-9.94-7.16-22.26,0,0-12.24-13-37.87-7.58,0,0-13.67,2.62-23.37,21.71a20.88,20.88,0,0,1-2,3.13c-.82,1.09-1.89,3.27-1.76,7.26a23.2,23.2,0,0,1-.07,2.89c-.32,3.59-.31,14.06,8.37,25.94,0,0,6.65,8.7,12.41,7.42,0,0,3.42-.12,3.7-11.19A5.69,5.69,0,0,0,407.6,90.16Z" fill="#5a0066"/><path d="M437.56,112.36l-4.06-1.45a9.05,9.05,0,0,1-5.35-7.62,17.53,17.53,0,0,1,1.13-6.92L383.75,68.14c-.51-6.14,2.54-8.81,2.54-8.81L434,87.7s7.4-5.07,11.05-6.7c0,0-3.32-18-16.66-28l-.77-.58A60.26,60.26,0,0,0,400.1,41.26s5.45-4.76,10.75-5.66c0,0,27.36,4.8,38.31,25a42.82,42.82,0,0,1,5.95,14.5L461,71.79s4.41-1.65,9.78,2.19a10.94,10.94,0,0,0-5.26,1.27l-22.08,13s-7.77,5.49-8.93,15.27C434.47,103.57,434.1,109.77,437.56,112.36Z" fill="#5a0066"/><path d="M437.56,112.36l-4.06-1.45a9.05,9.05,0,0,1-5.35-7.62,17.53,17.53,0,0,1,1.13-6.92L383.75,68.14c-.51-6.14,2.54-8.81,2.54-8.81L434,87.7s7.4-5.07,11.05-6.7c0,0-3.32-18-16.66-28l-.77-.58A60.26,60.26,0,0,0,400.1,41.26s5.45-4.76,10.75-5.66c0,0,27.36,4.8,38.31,25a42.82,42.82,0,0,1,5.95,14.5L461,71.79s4.41-1.65,9.78,2.19a10.94,10.94,0,0,0-5.26,1.27l-22.08,13s-7.77,5.49-8.93,15.27C434.47,103.57,434.1,109.77,437.56,112.36Z" opacity="0.2"/><path d="M455.78,104.62,465.87,99a12.79,12.79,0,0,0,3.78-3.2A25.11,25.11,0,0,0,474.88,84s2-7.79-4.69-10.22a15.23,15.23,0,0,0-4.71,1.49L444.08,87.9s-6.38,3.17-9.25,13.31c0,0-1.26,5,.85,9.1a5.05,5.05,0,0,0,7,2.17l.24-.14Z" fill="#5a0066"/></svg>